<?xml version="1.0" encoding="UTF-8" standalone="no"?>
<svg width="55px" height="48px" viewBox="0 0 55 48" version="1.1" xmlns="http://www.w3.org/2000/svg" xmlns:xlink="http://www.w3.org/1999/xlink">
    <!-- Generator: Sketch 41.2 (35397) - http://www.bohemiancoding.com/sketch -->
    <title>”</title>
    <desc>Created with Sketch.</desc>
    <defs></defs>
    <g id="Elements" stroke="none" stroke-width="1" fill="none" fill-rule="evenodd" opacity="0.200000003">
        <g id="Typography" transform="translate(-1463.000000, -1135.000000)" fill="#DEC8AE">
            <path d="M1465.28795,1182.40637 L1465.28795,1175.63403 C1467.42339,1174.53581 1469.02494,1172.46142 1470.09265,1169.4108 C1471.16037,1166.36018 1471.69422,1162.33343 1471.69422,1157.33041 L1471.69422,1155.31702 L1463,1155.31702 L1463,1135 L1483.31702,1135 L1483.31702,1150.192 C1483.31702,1159.46588 1481.80698,1166.78726 1478.78687,1172.15635 C1475.76676,1177.52543 1471.26716,1180.94208 1465.28795,1182.40637 Z M1499.14965,1182.40637 L1499.14965,1175.63403 C1501.28508,1174.53581 1502.88663,1172.46142 1503.95435,1169.4108 C1505.02206,1166.36018 1505.55591,1162.33343 1505.55591,1157.33041 L1505.55591,1155.31702 L1496.86169,1155.31702 L1496.86169,1135 L1517.17871,1135 L1517.17871,1150.192 C1517.17871,1159.46588 1515.66868,1166.78726 1512.64857,1172.15635 C1509.62845,1177.52543 1505.12886,1180.94208 1499.14965,1182.40637 Z" id="”"></path>
        </g>
    </g>
</svg>